<svg xmlns="http://www.w3.org/2000/svg" xmlns:xlink="http://www.w3.org/1999/xlink" version="1.1" class="marks" width="479" height="395" viewBox="0 0 479 395"><rect width="479" height="395" fill="white"/><g fill="none" stroke-miterlimit="10" transform="translate(55,50)"><g class="mark-group role-frame root" role="graphics-object" aria-roledescription="group mark container"><g transform="translate(0,0)"><path class="background" aria-hidden="true" d="M0,0h0v0h0Z"/><g><g class="mark-group role-row-header row_header" role="graphics-object" aria-roledescription="group mark container"><g transform="translate(-1,0)"><path class="background" aria-hidden="true" d="M0,0h0v300h0Z"/><g><g class="mark-group role-axis" role="graphics-symbol" aria-roledescription="axis" aria-label="Y-axis titled 'profit' for a linear scale with values from 3 to 100"><g transform="translate(0.5,0.5)"><path class="background" aria-hidden="true" d="M0,0h0v0h0Z" pointer-events="none"/><g><g class="mark-rule role-axis-tick" pointer-events="none"><line transform="translate(0,278)" x2="-5" y2="0" stroke="#888" stroke-width="1" opacity="1"/><line transform="translate(0,247)" x2="-5" y2="0" stroke="#888" stroke-width="1" opacity="1"/><line transform="translate(0,216)" x2="-5" y2="0" stroke="#888" stroke-width="1" opacity="1"/><line transform="translate(0,186)" x2="-5" y2="0" stroke="#888" stroke-width="1" opacity="1"/><line transform="translate(0,155)" x2="-5" y2="0" stroke="#888" stroke-width="1" opacity="1"/><line transform="translate(0,124)" x2="-5" y2="0" stroke="#888" stroke-width="1" opacity="1"/><line transform="translate(0,93)" x2="-5" y2="0" stroke="#888" stroke-width="1" opacity="1"/><line transform="translate(0,62)" x2="-5" y2="0" stroke="#888" stroke-width="1" opacity="1"/><line transform="translate(0,31)" x2="-5" y2="0" stroke="#888" stroke-width="1" opacity="1"/><line transform="translate(0,0)" x2="-5" y2="0" stroke="#888" stroke-width="1" opacity="1"/></g><g class="mark-text role-axis-label" pointer-events="none"><text text-anchor="end" transform="translate(-7,282.35051546391753)" font-family="sans-serif" font-size="14px" fill="#000" opacity="1">10</text><text text-anchor="end" transform="translate(-7,251.4226804123711)" font-family="sans-serif" font-size="14px" fill="#000" opacity="1">20</text><text text-anchor="end" transform="translate(-7,220.49484536082474)" font-family="sans-serif" font-size="14px" fill="#000" opacity="1">30</text><text text-anchor="end" transform="translate(-7,189.56701030927834)" font-family="sans-serif" font-size="14px" fill="#000" opacity="1">40</text><text text-anchor="end" transform="translate(-7,158.63917525773195)" font-family="sans-serif" font-size="14px" fill="#000" opacity="1">50</text><text text-anchor="end" transform="translate(-7,127.71134020618555)" font-family="sans-serif" font-size="14px" fill="#000" opacity="1">60</text><text text-anchor="end" transform="translate(-7,96.78350515463917)" font-family="sans-serif" font-size="14px" fill="#000" opacity="1">70</text><text text-anchor="end" transform="translate(-7,65.85567010309279)" font-family="sans-serif" font-size="14px" fill="#000" opacity="1">80</text><text text-anchor="end" transform="translate(-7,34.92783505154638)" font-family="sans-serif" font-size="14px" fill="#000" opacity="1">90</text><text text-anchor="end" transform="translate(-7,4)" font-family="sans-serif" font-size="14px" fill="#000" opacity="1">100</text></g><g class="mark-rule role-axis-domain" pointer-events="none"><line transform="translate(0,300)" x2="0" y2="-300" stroke="#888" stroke-width="1" opacity="1"/></g><g class="mark-text role-axis-title" pointer-events="none"><text text-anchor="middle" transform="translate(-34.3583984375,150) rotate(-90) translate(0,-3)" font-family="sans-serif" font-size="14px" font-weight="bold" fill="#000" opacity="1">profit</text></g></g><path class="foreground" aria-hidden="true" d="" pointer-events="none" display="none"/></g></g></g><path class="foreground" aria-hidden="true" d="" display="none"/></g></g><g class="mark-group role-column-header column_header" role="graphics-object" aria-roledescription="group mark container"><g transform="translate(0,-1)"><path class="background" aria-hidden="true" d="M0,0h40v0h-40Z"/><g><g class="mark-group role-title"><g transform="translate(20,-24)"><path class="background" aria-hidden="true" d="M0,0h0v0h0Z" pointer-events="none"/><g><g class="mark-text role-title-text" role="graphics-symbol" aria-roledescription="title" aria-label="Title text 'Jan'" pointer-events="none"><text text-anchor="middle" transform="translate(0,11)" font-family="sans-serif" font-size="14px" fill="#000" opacity="1">Jan</text></g></g><path class="foreground" aria-hidden="true" d="" pointer-events="none" display="none"/></g></g></g><path class="foreground" aria-hidden="true" d="" display="none"/></g><g transform="translate(62,-1)"><path class="background" aria-hidden="true" d="M0,0h40v0h-40Z"/><g><g class="mark-group role-title"><g transform="translate(20,-24)"><path class="background" aria-hidden="true" d="M0,0h0v0h0Z" pointer-events="none"/><g><g class="mark-text role-title-text" role="graphics-symbol" aria-roledescription="title" aria-label="Title text 'Feb'" pointer-events="none"><text text-anchor="middle" transform="translate(0,11)" font-family="sans-serif" font-size="14px" fill="#000" opacity="1">Feb</text></g></g><path class="foreground" aria-hidden="true" d="" pointer-events="none" display="none"/></g></g></g><path class="foreground" aria-hidden="true" d="" display="none"/></g><g transform="translate(124,-1)"><path class="background" aria-hidden="true" d="M0,0h40v0h-40Z"/><g><g class="mark-group role-title"><g transform="translate(20,-24)"><path class="background" aria-hidden="true" d="M0,0h0v0h0Z" pointer-events="none"/><g><g class="mark-text role-title-text" role="graphics-symbol" aria-roledescription="title" aria-label="Title text 'Mar'" pointer-events="none"><text text-anchor="middle" transform="translate(0,11)" font-family="sans-serif" font-size="14px" fill="#000" opacity="1">Mar</text></g></g><path class="foreground" aria-hidden="true" d="" pointer-events="none" display="none"/></g></g></g><path class="foreground" aria-hidden="true" d="" display="none"/></g><g transform="translate(186,-1)"><path class="background" aria-hidden="true" d="M0,0h40v0h-40Z"/><g><g class="mark-group role-title"><g transform="translate(20,-24)"><path class="background" aria-hidden="true" d="M0,0h0v0h0Z" pointer-events="none"/><g><g class="mark-text role-title-text" role="graphics-symbol" aria-roledescription="title" aria-label="Title text 'Apr'" pointer-events="none"><text text-anchor="middle" transform="translate(0,11)" font-family="sans-serif" font-size="14px" fill="#000" opacity="1">Apr</text></g></g><path class="foreground" aria-hidden="true" d="" pointer-events="none" display="none"/></g></g></g><path class="foreground" aria-hidden="true" d="" display="none"/></g><g transform="translate(248,-1)"><path class="background" aria-hidden="true" d="M0,0h40v0h-40Z"/><g><g class="mark-group role-title"><g transform="translate(20,-24)"><path class="background" aria-hidden="true" d="M0,0h0v0h0Z" pointer-events="none"/><g><g class="mark-text role-title-text" role="graphics-symbol" aria-roledescription="title" aria-label="Title text 'May'" pointer-events="none"><text text-anchor="middle" transform="translate(0,11)" font-family="sans-serif" font-size="14px" fill="#000" opacity="1">May</text></g></g><path class="foreground" aria-hidden="true" d="" pointer-events="none" display="none"/></g></g></g><path class="foreground" aria-hidden="true" d="" display="none"/></g><g transform="translate(310,-1)"><path class="background" aria-hidden="true" d="M0,0h40v0h-40Z"/><g><g class="mark-group role-title"><g transform="translate(20,-24)"><path class="background" aria-hidden="true" d="M0,0h0v0h0Z" pointer-events="none"/><g><g class="mark-text role-title-text" role="graphics-symbol" aria-roledescription="title" aria-label="Title text 'Jun'" pointer-events="none"><text text-anchor="middle" transform="translate(0,11)" font-family="sans-serif" font-size="14px" fill="#000" opacity="1">Jun</text></g></g><path class="foreground" aria-hidden="true" d="" pointer-events="none" display="none"/></g></g></g><path class="foreground" aria-hidden="true" d="" display="none"/></g></g><g class="mark-group role-column-footer column_footer" role="graphics-object" aria-roledescription="group mark container"><g transform="translate(0,301)"><path class="background" aria-hidden="true" d="M0,0h40v0h-40Z"/><g><g class="mark-group role-axis" role="graphics-symbol" aria-roledescription="axis" aria-label="X-axis for a discrete scale with 2 values: 2020, 2021"><g transform="translate(0.5,0.5)"><path class="background" aria-hidden="true" d="M0,0h0v0h0Z" pointer-events="none"/><g><g class="mark-rule role-axis-tick" pointer-events="none"><line transform="translate(10,0)" x2="0" y2="5" stroke="#888" stroke-width="1" opacity="1"/><line transform="translate(30,0)" x2="0" y2="5" stroke="#888" stroke-width="1" opacity="1"/></g><g class="mark-text role-axis-label" pointer-events="none"><text text-anchor="end" transform="translate(9.5,7) rotate(315) translate(0,11)" font-family="sans-serif" font-size="14px" fill="#000" opacity="1">2020</text><text text-anchor="end" transform="translate(29.5,7) rotate(315) translate(0,11)" font-family="sans-serif" font-size="14px" fill="#000" opacity="1">2021</text></g><g class="mark-rule role-axis-domain" pointer-events="none"><line transform="translate(0,0)" x2="40" y2="0" stroke="#888" stroke-width="1" opacity="1"/></g></g><path class="foreground" aria-hidden="true" d="" pointer-events="none" display="none"/></g></g></g><path class="foreground" aria-hidden="true" d="" display="none"/></g><g transform="translate(62,301)"><path class="background" aria-hidden="true" d="M0,0h40v0h-40Z"/><g><g class="mark-group role-axis" role="graphics-symbol" aria-roledescription="axis" aria-label="X-axis for a discrete scale with 2 values: 2020, 2021"><g transform="translate(0.5,0.5)"><path class="background" aria-hidden="true" d="M0,0h0v0h0Z" pointer-events="none"/><g><g class="mark-rule role-axis-tick" pointer-events="none"><line transform="translate(10,0)" x2="0" y2="5" stroke="#888" stroke-width="1" opacity="1"/><line transform="translate(30,0)" x2="0" y2="5" stroke="#888" stroke-width="1" opacity="1"/></g><g class="mark-text role-axis-label" pointer-events="none"><text text-anchor="end" transform="translate(9.5,7) rotate(315) translate(0,11)" font-family="sans-serif" font-size="14px" fill="#000" opacity="1">2020</text><text text-anchor="end" transform="translate(29.5,7) rotate(315) translate(0,11)" font-family="sans-serif" font-size="14px" fill="#000" opacity="1">2021</text></g><g class="mark-rule role-axis-domain" pointer-events="none"><line transform="translate(0,0)" x2="40" y2="0" stroke="#888" stroke-width="1" opacity="1"/></g></g><path class="foreground" aria-hidden="true" d="" pointer-events="none" display="none"/></g></g></g><path class="foreground" aria-hidden="true" d="" display="none"/></g><g transform="translate(124,301)"><path class="background" aria-hidden="true" d="M0,0h40v0h-40Z"/><g><g class="mark-group role-axis" role="graphics-symbol" aria-roledescription="axis" aria-label="X-axis for a discrete scale with 2 values: 2020, 2021"><g transform="translate(0.5,0.5)"><path class="background" aria-hidden="true" d="M0,0h0v0h0Z" pointer-events="none"/><g><g class="mark-rule role-axis-tick" pointer-events="none"><line transform="translate(10,0)" x2="0" y2="5" stroke="#888" stroke-width="1" opacity="1"/><line transform="translate(30,0)" x2="0" y2="5" stroke="#888" stroke-width="1" opacity="1"/></g><g class="mark-text role-axis-label" pointer-events="none"><text text-anchor="end" transform="translate(9.5,7) rotate(315) translate(0,11)" font-family="sans-serif" font-size="14px" fill="#000" opacity="1">2020</text><text text-anchor="end" transform="translate(29.5,7) rotate(315) translate(0,11)" font-family="sans-serif" font-size="14px" fill="#000" opacity="1">2021</text></g><g class="mark-rule role-axis-domain" pointer-events="none"><line transform="translate(0,0)" x2="40" y2="0" stroke="#888" stroke-width="1" opacity="1"/></g></g><path class="foreground" aria-hidden="true" d="" pointer-events="none" display="none"/></g></g></g><path class="foreground" aria-hidden="true" d="" display="none"/></g><g transform="translate(186,301)"><path class="background" aria-hidden="true" d="M0,0h40v0h-40Z"/><g><g class="mark-group role-axis" role="graphics-symbol" aria-roledescription="axis" aria-label="X-axis for a discrete scale with 2 values: 2020, 2021"><g transform="translate(0.5,0.5)"><path class="background" aria-hidden="true" d="M0,0h0v0h0Z" pointer-events="none"/><g><g class="mark-rule role-axis-tick" pointer-events="none"><line transform="translate(10,0)" x2="0" y2="5" stroke="#888" stroke-width="1" opacity="1"/><line transform="translate(30,0)" x2="0" y2="5" stroke="#888" stroke-width="1" opacity="1"/></g><g class="mark-text role-axis-label" pointer-events="none"><text text-anchor="end" transform="translate(9.5,7) rotate(315) translate(0,11)" font-family="sans-serif" font-size="14px" fill="#000" opacity="1">2020</text><text text-anchor="end" transform="translate(29.5,7) rotate(315) translate(0,11)" font-family="sans-serif" font-size="14px" fill="#000" opacity="1">2021</text></g><g class="mark-rule role-axis-domain" pointer-events="none"><line transform="translate(0,0)" x2="40" y2="0" stroke="#888" stroke-width="1" opacity="1"/></g></g><path class="foreground" aria-hidden="true" d="" pointer-events="none" display="none"/></g></g></g><path class="foreground" aria-hidden="true" d="" display="none"/></g><g transform="translate(248,301)"><path class="background" aria-hidden="true" d="M0,0h40v0h-40Z"/><g><g class="mark-group role-axis" role="graphics-symbol" aria-roledescription="axis" aria-label="X-axis for a discrete scale with 2 values: 2020, 2021"><g transform="translate(0.5,0.5)"><path class="background" aria-hidden="true" d="M0,0h0v0h0Z" pointer-events="none"/><g><g class="mark-rule role-axis-tick" pointer-events="none"><line transform="translate(10,0)" x2="0" y2="5" stroke="#888" stroke-width="1" opacity="1"/><line transform="translate(30,0)" x2="0" y2="5" stroke="#888" stroke-width="1" opacity="1"/></g><g class="mark-text role-axis-label" pointer-events="none"><text text-anchor="end" transform="translate(9.5,7) rotate(315) translate(0,11)" font-family="sans-serif" font-size="14px" fill="#000" opacity="1">2020</text><text text-anchor="end" transform="translate(29.5,7) rotate(315) translate(0,11)" font-family="sans-serif" font-size="14px" fill="#000" opacity="1">2021</text></g><g class="mark-rule role-axis-domain" pointer-events="none"><line transform="translate(0,0)" x2="40" y2="0" stroke="#888" stroke-width="1" opacity="1"/></g></g><path class="foreground" aria-hidden="true" d="" pointer-events="none" display="none"/></g></g></g><path class="foreground" aria-hidden="true" d="" display="none"/></g><g transform="translate(310,301)"><path class="background" aria-hidden="true" d="M0,0h40v0h-40Z"/><g><g class="mark-group role-axis" role="graphics-symbol" aria-roledescription="axis" aria-label="X-axis for a discrete scale with 2 values: 2020, 2021"><g transform="translate(0.5,0.5)"><path class="background" aria-hidden="true" d="M0,0h0v0h0Z" pointer-events="none"/><g><g class="mark-rule role-axis-tick" pointer-events="none"><line transform="translate(10,0)" x2="0" y2="5" stroke="#888" stroke-width="1" opacity="1"/><line transform="translate(30,0)" x2="0" y2="5" stroke="#888" stroke-width="1" opacity="1"/></g><g class="mark-text role-axis-label" pointer-events="none"><text text-anchor="end" transform="translate(9.5,7) rotate(315) translate(0,11)" font-family="sans-serif" font-size="14px" fill="#000" opacity="1">2020</text><text text-anchor="end" transform="translate(29.5,7) rotate(315) translate(0,11)" font-family="sans-serif" font-size="14px" fill="#000" opacity="1">2021</text></g><g class="mark-rule role-axis-domain" pointer-events="none"><line transform="translate(0,0)" x2="40" y2="0" stroke="#888" stroke-width="1" opacity="1"/></g></g><path class="foreground" aria-hidden="true" d="" pointer-events="none" display="none"/></g></g></g><path class="foreground" aria-hidden="true" d="" display="none"/></g></g><g class="mark-group role-scope cell" role="graphics-object" aria-roledescription="group mark container"><g transform="translate(0,0)"><path class="background" aria-hidden="true" d="M0.5,0.5h40v300h-40Z" stroke="#ddd"/><g><g class="mark-group role-axis" aria-hidden="true"><g transform="translate(0.5,0.5)"><path class="background" aria-hidden="true" d="M0,0h0v0h0Z" pointer-events="none"/><g><g class="mark-rule role-axis-grid" pointer-events="none"><line transform="translate(0,278)" x2="40" y2="0" stroke="#ddd" stroke-width="1" opacity="1"/><line transform="translate(0,247)" x2="40" y2="0" stroke="#ddd" stroke-width="1" opacity="1"/><line transform="translate(0,216)" x2="40" y2="0" stroke="#ddd" stroke-width="1" opacity="1"/><line transform="translate(0,186)" x2="40" y2="0" stroke="#ddd" stroke-width="1" opacity="1"/><line transform="translate(0,155)" x2="40" y2="0" stroke="#ddd" stroke-width="1" opacity="1"/><line transform="translate(0,124)" x2="40" y2="0" stroke="#ddd" stroke-width="1" opacity="1"/><line transform="translate(0,93)" x2="40" y2="0" stroke="#ddd" stroke-width="1" opacity="1"/><line transform="translate(0,62)" x2="40" y2="0" stroke="#ddd" stroke-width="1" opacity="1"/><line transform="translate(0,31)" x2="40" y2="0" stroke="#ddd" stroke-width="1" opacity="1"/><line transform="translate(0,0)" x2="40" y2="0" stroke="#ddd" stroke-width="1" opacity="1"/></g></g><path class="foreground" aria-hidden="true" d="" pointer-events="none" display="none"/></g></g><g class="mark-rect role-mark child_marks" role="graphics-object" aria-roledescription="rect mark container"><path aria-label="year: 2020; profit: 34" role="graphics-symbol" aria-roledescription="bar" d="M1,204.1237113402062h18v95.8762886597938h-18Z" fill="#4c78a8"/><path aria-label="year: 2021; profit: 37" role="graphics-symbol" aria-roledescription="bar" d="M21,194.84536082474227h18v105.15463917525773h-18Z" fill="#f58518"/></g></g><path class="foreground" aria-hidden="true" d="" display="none"/></g><g transform="translate(62,0)"><path class="background" aria-hidden="true" d="M0.5,0.5h40v300h-40Z" stroke="#ddd"/><g><g class="mark-group role-axis" aria-hidden="true"><g transform="translate(0.5,0.5)"><path class="background" aria-hidden="true" d="M0,0h0v0h0Z" pointer-events="none"/><g><g class="mark-rule role-axis-grid" pointer-events="none"><line transform="translate(0,278)" x2="40" y2="0" stroke="#ddd" stroke-width="1" opacity="1"/><line transform="translate(0,247)" x2="40" y2="0" stroke="#ddd" stroke-width="1" opacity="1"/><line transform="translate(0,216)" x2="40" y2="0" stroke="#ddd" stroke-width="1" opacity="1"/><line transform="translate(0,186)" x2="40" y2="0" stroke="#ddd" stroke-width="1" opacity="1"/><line transform="translate(0,155)" x2="40" y2="0" stroke="#ddd" stroke-width="1" opacity="1"/><line transform="translate(0,124)" x2="40" y2="0" stroke="#ddd" stroke-width="1" opacity="1"/><line transform="translate(0,93)" x2="40" y2="0" stroke="#ddd" stroke-width="1" opacity="1"/><line transform="translate(0,62)" x2="40" y2="0" stroke="#ddd" stroke-width="1" opacity="1"/><line transform="translate(0,31)" x2="40" y2="0" stroke="#ddd" stroke-width="1" opacity="1"/><line transform="translate(0,0)" x2="40" y2="0" stroke="#ddd" stroke-width="1" opacity="1"/></g></g><path class="foreground" aria-hidden="true" d="" pointer-events="none" display="none"/></g></g><g class="mark-rect role-mark child_marks" role="graphics-object" aria-roledescription="rect mark container"><path aria-label="year: 2020; profit: 26" role="graphics-symbol" aria-roledescription="bar" d="M1,228.86597938144328h18v71.13402061855672h-18Z" fill="#4c78a8"/><path aria-label="year: 2021; profit: 21" role="graphics-symbol" aria-roledescription="bar" d="M21,244.3298969072165h18v55.670103092783506h-18Z" fill="#f58518"/></g></g><path class="foreground" aria-hidden="true" d="" display="none"/></g><g transform="translate(124,0)"><path class="background" aria-hidden="true" d="M0.5,0.5h40v300h-40Z" stroke="#ddd"/><g><g class="mark-group role-axis" aria-hidden="true"><g transform="translate(0.5,0.5)"><path class="background" aria-hidden="true" d="M0,0h0v0h0Z" pointer-events="none"/><g><g class="mark-rule role-axis-grid" pointer-events="none"><line transform="translate(0,278)" x2="40" y2="0" stroke="#ddd" stroke-width="1" opacity="1"/><line transform="translate(0,247)" x2="40" y2="0" stroke="#ddd" stroke-width="1" opacity="1"/><line transform="translate(0,216)" x2="40" y2="0" stroke="#ddd" stroke-width="1" opacity="1"/><line transform="translate(0,186)" x2="40" y2="0" stroke="#ddd" stroke-width="1" opacity="1"/><line transform="translate(0,155)" x2="40" y2="0" stroke="#ddd" stroke-width="1" opacity="1"/><line transform="translate(0,124)" x2="40" y2="0" stroke="#ddd" stroke-width="1" opacity="1"/><line transform="translate(0,93)" x2="40" y2="0" stroke="#ddd" stroke-width="1" opacity="1"/><line transform="translate(0,62)" x2="40" y2="0" stroke="#ddd" stroke-width="1" opacity="1"/><line transform="translate(0,31)" x2="40" y2="0" stroke="#ddd" stroke-width="1" opacity="1"/><line transform="translate(0,0)" x2="40" y2="0" stroke="#ddd" stroke-width="1" opacity="1"/></g></g><path class="foreground" aria-hidden="true" d="" pointer-events="none" display="none"/></g></g><g class="mark-rect role-mark child_marks" role="graphics-object" aria-roledescription="rect mark container"><path aria-label="year: 2020; profit: 47" role="graphics-symbol" aria-roledescription="bar" d="M1,163.9175257731959h18v136.0824742268041h-18Z" fill="#4c78a8"/><path aria-label="year: 2021; profit: 75" role="graphics-symbol" aria-roledescription="bar" d="M21,77.31958762886597h18v222.68041237113403h-18Z" fill="#f58518"/></g></g><path class="foreground" aria-hidden="true" d="" display="none"/></g><g transform="translate(186,0)"><path class="background" aria-hidden="true" d="M0.5,0.5h40v300h-40Z" stroke="#ddd"/><g><g class="mark-group role-axis" aria-hidden="true"><g transform="translate(0.5,0.5)"><path class="background" aria-hidden="true" d="M0,0h0v0h0Z" pointer-events="none"/><g><g class="mark-rule role-axis-grid" pointer-events="none"><line transform="translate(0,278)" x2="40" y2="0" stroke="#ddd" stroke-width="1" opacity="1"/><line transform="translate(0,247)" x2="40" y2="0" stroke="#ddd" stroke-width="1" opacity="1"/><line transform="translate(0,216)" x2="40" y2="0" stroke="#ddd" stroke-width="1" opacity="1"/><line transform="translate(0,186)" x2="40" y2="0" stroke="#ddd" stroke-width="1" opacity="1"/><line transform="translate(0,155)" x2="40" y2="0" stroke="#ddd" stroke-width="1" opacity="1"/><line transform="translate(0,124)" x2="40" y2="0" stroke="#ddd" stroke-width="1" opacity="1"/><line transform="translate(0,93)" x2="40" y2="0" stroke="#ddd" stroke-width="1" opacity="1"/><line transform="translate(0,62)" x2="40" y2="0" stroke="#ddd" stroke-width="1" opacity="1"/><line transform="translate(0,31)" x2="40" y2="0" stroke="#ddd" stroke-width="1" opacity="1"/><line transform="translate(0,0)" x2="40" y2="0" stroke="#ddd" stroke-width="1" opacity="1"/></g></g><path class="foreground" aria-hidden="true" d="" pointer-events="none" display="none"/></g></g><g class="mark-rect role-mark child_marks" role="graphics-object" aria-roledescription="rect mark container"><path aria-label="year: 2020; profit: 23" role="graphics-symbol" aria-roledescription="bar" d="M1,238.14432989690724h18v61.85567010309276h-18Z" fill="#4c78a8"/><path aria-label="year: 2021; profit: 27" role="graphics-symbol" aria-roledescription="bar" d="M21,225.77319587628867h18v74.22680412371133h-18Z" fill="#f58518"/></g></g><path class="foreground" aria-hidden="true" d="" display="none"/></g><g transform="translate(248,0)"><path class="background" aria-hidden="true" d="M0.5,0.5h40v300h-40Z" stroke="#ddd"/><g><g class="mark-group role-axis" aria-hidden="true"><g transform="translate(0.5,0.5)"><path class="background" aria-hidden="true" d="M0,0h0v0h0Z" pointer-events="none"/><g><g class="mark-rule role-axis-grid" pointer-events="none"><line transform="translate(0,278)" x2="40" y2="0" stroke="#ddd" stroke-width="1" opacity="1"/><line transform="translate(0,247)" x2="40" y2="0" stroke="#ddd" stroke-width="1" opacity="1"/><line transform="translate(0,216)" x2="40" y2="0" stroke="#ddd" stroke-width="1" opacity="1"/><line transform="translate(0,186)" x2="40" y2="0" stroke="#ddd" stroke-width="1" opacity="1"/><line transform="translate(0,155)" x2="40" y2="0" stroke="#ddd" stroke-width="1" opacity="1"/><line transform="translate(0,124)" x2="40" y2="0" stroke="#ddd" stroke-width="1" opacity="1"/><line transform="translate(0,93)" x2="40" y2="0" stroke="#ddd" stroke-width="1" opacity="1"/><line transform="translate(0,62)" x2="40" y2="0" stroke="#ddd" stroke-width="1" opacity="1"/><line transform="translate(0,31)" x2="40" y2="0" stroke="#ddd" stroke-width="1" opacity="1"/><line transform="translate(0,0)" x2="40" y2="0" stroke="#ddd" stroke-width="1" opacity="1"/></g></g><path class="foreground" aria-hidden="true" d="" pointer-events="none" display="none"/></g></g><g class="mark-rect role-mark child_marks" role="graphics-object" aria-roledescription="rect mark container"><path aria-label="year: 2020; profit: 24" role="graphics-symbol" aria-roledescription="bar" d="M1,235.05154639175257h18v64.94845360824743h-18Z" fill="#4c78a8"/><path aria-label="year: 2021; profit: 35" role="graphics-symbol" aria-roledescription="bar" d="M21,201.03092783505156h18v98.96907216494844h-18Z" fill="#f58518"/></g></g><path class="foreground" aria-hidden="true" d="" display="none"/></g><g transform="translate(310,0)"><path class="background" aria-hidden="true" d="M0.5,0.5h40v300h-40Z" stroke="#ddd"/><g><g class="mark-group role-axis" aria-hidden="true"><g transform="translate(0.5,0.5)"><path class="background" aria-hidden="true" d="M0,0h0v0h0Z" pointer-events="none"/><g><g class="mark-rule role-axis-grid" pointer-events="none"><line transform="translate(0,278)" x2="40" y2="0" stroke="#ddd" stroke-width="1" opacity="1"/><line transform="translate(0,247)" x2="40" y2="0" stroke="#ddd" stroke-width="1" opacity="1"/><line transform="translate(0,216)" x2="40" y2="0" stroke="#ddd" stroke-width="1" opacity="1"/><line transform="translate(0,186)" x2="40" y2="0" stroke="#ddd" stroke-width="1" opacity="1"/><line transform="translate(0,155)" x2="40" y2="0" stroke="#ddd" stroke-width="1" opacity="1"/><line transform="translate(0,124)" x2="40" y2="0" stroke="#ddd" stroke-width="1" opacity="1"/><line transform="translate(0,93)" x2="40" y2="0" stroke="#ddd" stroke-width="1" opacity="1"/><line transform="translate(0,62)" x2="40" y2="0" stroke="#ddd" stroke-width="1" opacity="1"/><line transform="translate(0,31)" x2="40" y2="0" stroke="#ddd" stroke-width="1" opacity="1"/><line transform="translate(0,0)" x2="40" y2="0" stroke="#ddd" stroke-width="1" opacity="1"/></g></g><path class="foreground" aria-hidden="true" d="" pointer-events="none" display="none"/></g></g><g class="mark-rect role-mark child_marks" role="graphics-object" aria-roledescription="rect mark container"><path aria-label="year: 2020; profit: 22" role="graphics-symbol" aria-roledescription="bar" d="M1,241.23711340206185h18v58.76288659793815h-18Z" fill="#4c78a8"/><path aria-label="year: 2021; profit: 68" role="graphics-symbol" aria-roledescription="bar" d="M21,98.96907216494847h18v201.03092783505153h-18Z" fill="#f58518"/></g></g><path class="foreground" aria-hidden="true" d="" display="none"/></g></g><g class="mark-group role-legend" role="graphics-symbol" aria-roledescription="legend" aria-label="Symbol legend titled 'year' for fill color with 2 values: 2020, 2021"><g transform="translate(369,0)"><path class="background" aria-hidden="true" d="M0,0h50v49h-50Z" pointer-events="none"/><g><g class="mark-group role-legend-entry"><g transform="translate(0,19)"><path class="background" aria-hidden="true" d="M0,0h0v0h0Z" pointer-events="none"/><g><g class="mark-group role-scope" role="graphics-object" aria-roledescription="group mark container"><g transform="translate(0,0)"><path class="background" aria-hidden="true" d="M0,0h49.14453125v14h-49.14453125Z" pointer-events="none" opacity="1"/><g><g class="mark-symbol role-legend-symbol" pointer-events="none"><path transform="translate(7,7)" d="M-5,-5h10v10h-10Z" fill="#4c78a8" stroke-width="1.5" opacity="1"/></g><g class="mark-text role-legend-label" pointer-events="none"><text text-anchor="start" transform="translate(18,11)" font-family="sans-serif" font-size="14px" fill="#000" opacity="1">2020</text></g></g><path class="foreground" aria-hidden="true" d="" pointer-events="none" display="none"/></g><g transform="translate(0,16)"><path class="background" aria-hidden="true" d="M0,0h49.14453125v14h-49.14453125Z" pointer-events="none" opacity="1"/><g><g class="mark-symbol role-legend-symbol" pointer-events="none"><path transform="translate(7,7)" d="M-5,-5h10v10h-10Z" fill="#f58518" stroke-width="1.5" opacity="1"/></g><g class="mark-text role-legend-label" pointer-events="none"><text text-anchor="start" transform="translate(18,11)" font-family="sans-serif" font-size="14px" fill="#000" opacity="1">2021</text></g></g><path class="foreground" aria-hidden="true" d="" pointer-events="none" display="none"/></g></g></g><path class="foreground" aria-hidden="true" d="" pointer-events="none" display="none"/></g></g><g class="mark-text role-legend-title" pointer-events="none"><text text-anchor="start" transform="translate(0,11)" font-family="sans-serif" font-size="14px" font-weight="bold" fill="#000" opacity="1">year</text></g></g><path class="foreground" aria-hidden="true" d="" pointer-events="none" display="none"/></g></g><g class="mark-group role-title"><g transform="translate(184.82080078125,-45)"><path class="background" aria-hidden="true" d="M0,0h0v0h0Z" pointer-events="none"/><g><g class="mark-text role-title-text" role="graphics-symbol" aria-roledescription="title" aria-label="Title text 'Profit from Jan to Jun in 2020 to 2021'" pointer-events="none"><text text-anchor="middle" transform="translate(0,13)" font-family="sans-serif" font-size="16px" font-weight="bold" fill="#000" opacity="1">Profit from Jan to Jun in 2020 to 2021</text></g></g><path class="foreground" aria-hidden="true" d="" pointer-events="none" display="none"/></g></g></g><path class="foreground" aria-hidden="true" d="" display="none"/></g></g></g></svg>